# xmcd CD database file
#
# Track frame offsets:
#	150
#	12570
#	25333
#	37760
#	49643
#	63741
#	74106
#	84013
#	93809
#	107157
#	116303
#	127740
#	138975
#	151458
#	160914
#	170266
#	184799
#	197430
#	207440
#	221733
#
# Disc length: 3112 seconds
#
# Revision: 0
# Processed by: cddbd v1.5.2PL0 Copyright (c) Steve Scherf et al.
# Submitted via: CDex 1.70beta2
#
DISCID=0c0c2614
DTITLE=Diverse - Trucker and Country Hits   CD2
DYEAR=2008
DGENRE=Country
TTITLE0=Johnny Cash - I Walk The Line
TTITLE1=Willie BoxcarHobo Heaven (Live)
TTITLE2=Bobby Bare - Music City U.S.A.
TTITLE3=Stonewall Jackson - Waterloo
TTITLE4=George Jones - A Good Year For The Roses
TTITLE5=Ferlin Husky - Wings Of A Dove
TTITLE6=Hank Locklin - Please Help Me, I'm Falling
TTITLE7=Ned Miller - From A Jack To A King
TTITLE8=The Oak Ridge Boys - Hide Thou Me
TTITLE9=Jim Reeves - I Won't Forget You
TTITLE10=Don Williams and The Pozo Seco Singers - Storybook Children
TTITLE11=Patsy Cline - Just Out Of Reach
TTITLE12=Sonny James - Running Bear
TTITLE13=Jim Reeves - Billy Bayou
TTITLE14=Frank Iffield - I Remember You
TTITLE15=Loretta Lynn - Coal Miner's Daughter
TTITLE16=Claude King - Wolverton Mountain
TTITLE17=Brenda Lee - I'm Sorry
TTITLE18=Freddie Fender - Wasted Days And Wasted Nights
TTITLE19=Skeeter Davis - The End Of The World
EXTD=YEAR: 2008
EXTT0=
EXTT1=
EXTT2=
EXTT3=
EXTT4=
EXTT5=
EXTT6=
EXTT7=
EXTT8=
EXTT9=
EXTT10=
EXTT11=
EXTT12=
EXTT13=
EXTT14=
EXTT15=
EXTT16=
EXTT17=
EXTT18=
EXTT19=
PLAYORDER=
